<?xml version="1.0" encoding="UTF-8"?>
<!DOCTYPE svg PUBLIC "-//W3C//DTD SVG 1.1//EN" "http://www.w3.org/Graphics/SVG/1.1/DTD/svg11.dtd">
<svg xmlns="http://www.w3.org/2000/svg" version="1.1" width="512px" height="512px" style="shape-rendering:geometricPrecision; text-rendering:geometricPrecision; image-rendering:optimizeQuality; fill-rule:evenodd; clip-rule:evenodd" xmlns:xlink="http://www.w3.org/1999/xlink">
<g><path style="opacity:0.968" fill="#fff" d="M 72.5,86.5 C 83.7983,85.6596 94.4649,87.8263 104.5,93C 175.664,134.081 246.664,175.414 317.5,217C 336.747,234.796 340.913,255.629 330,279.5C 325.167,287 319,293.167 311.5,298C 282.5,314.833 253.5,331.667 224.5,348.5C 223.335,357.482 223.168,366.482 224,375.5C 226.096,387.937 233.262,392.771 245.5,390C 284.369,367.4 323.369,345.067 362.5,323C 375.056,320.923 382.056,326.09 383.5,338.5C 383.725,344.551 381.392,349.384 376.5,353C 338.908,374.267 301.574,395.934 264.5,418C 241.719,429.041 221.219,425.874 203,408.5C 193.27,396.592 189.27,382.925 191,367.5C 162.167,384.333 133.333,401.167 104.5,418C 77.7048,430.513 55.5381,425.013 38,401.5C 35.1635,396.828 33.1635,391.828 32,386.5C 31.3333,330.167 31.3333,273.833 32,217.5C 36.4731,208.518 43.6397,205.351 53.5,208C 58,209.833 61.1667,213 63,217.5C 63.3333,270.167 63.6667,322.833 64,375.5C 65.2549,387.216 71.7549,392.382 83.5,391C 151.997,351.919 220.33,312.586 288.5,273C 296.598,269.742 301.598,263.908 303.5,255.5C 302.737,248.902 299.404,244.069 293.5,241C 223.5,200.667 153.5,160.333 83.5,120C 75.0562,118.805 68.8895,121.972 65,129.5C 65.23,137.477 62.3967,143.977 56.5,149C 47.1401,153.521 39.3068,151.687 33,143.5C 29.463,112.877 42.6296,93.8774 72.5,86.5 Z"/></g>
<g><path style="opacity:0.96" fill="#fff" d="M 253.5,90.5 C 257.346,90.545 261.013,91.3783 264.5,93C 330.003,131.253 395.67,169.253 461.5,207C 471.832,212.333 480.665,219.499 488,228.5C 502.467,256.127 497.3,279.294 472.5,298C 455.5,307.667 438.5,317.333 421.5,327C 409.631,329.815 402.131,325.315 399,313.5C 398.084,306.495 400.584,300.995 406.5,297C 423.167,287.333 439.833,277.667 456.5,268C 463.011,261.749 464.177,254.582 460,246.5C 458.127,244.291 455.96,242.458 453.5,241C 383.67,200.919 314.003,160.586 244.5,120C 239.854,114.689 238.354,108.523 240,101.5C 242.616,95.3723 247.116,91.7057 253.5,90.5 Z"/></g>
</svg>
